<?xml version="1.0" standalone="no"?>
<!DOCTYPE svg PUBLIC "-//W3C//DTD SVG 20010904//EN"
 "http://www.w3.org/TR/2001/REC-SVG-20010904/DTD/svg10.dtd">
<svg version="1.0" xmlns="http://www.w3.org/2000/svg"
    width="100%" height="100%" viewBox="500 500 3000 1500"
    preserveAspectRatio="xMidYMid meet">

    <g transform="translate(0.000000,2250.000000) scale(0.100000,-0.100000)"
    fill="#ffffff" stroke="none">
    <path d="M15185 15649 c-1568 -75 -3101 -423 -4580 -1040 -286 -119 -798 -349
    -792 -355 1 -2 68 17 147 42 1026 320 2108 552 3060 658 535 60 896 80 1430
    79 809 0 1480 -66 2254 -223 110 -22 202 -40 205 -40 3 0 4 46 3 103 -8 240
    71 473 227 665 40 49 47 62 32 62 -10 0 -133 9 -272 20 -140 10 -357 24 -482
    30 -261 11 -978 11 -1232 -1z"/>
    <path d="M17815 15530 c-215 -32 -388 -157 -480 -345 -47 -95 -65 -173 -65
    -280 0 -108 19 -192 61 -279 191 -392 711 -477 1019 -167 125 126 180 262 180
    444 0 120 -18 196 -72 300 -92 177 -267 298 -472 326 -85 12 -97 12 -171 1z"/>
    <path d="M28170 12505 l0 -3035 530 0 530 0 0 3035 0 3035 -530 0 -530 0 0
    -3035z"/>
    <path d="M14945 13324 c-290 -45 -529 -163 -743 -368 -42 -41 -99 -104 -127
    -140 -27 -36 -53 -65 -57 -65 -5 -1 -8 105 -8 234 l0 235 -525 0 -525 0 0
    -1875 0 -1875 525 0 525 0 0 938 c1 999 7 1223 38 1368 74 335 282 570 567
    640 88 22 315 25 395 6 30 -8 96 -33 145 -57 180 -86 291 -242 341 -479 28
    -135 34 -360 34 -1383 l0 -1033 530 0 530 0 0 1163 c0 1218 -7 1481 -40 1662
    -106 588 -502 947 -1137 1030 -139 18 -347 18 -468 -1z"/>
    <path d="M24911 13329 c-455 -48 -882 -267 -1166 -599 -239 -278 -396 -624
    -462 -1019 -14 -83 -18 -162 -18 -366 0 -228 3 -276 23 -389 105 -582 414
    -1057 868 -1337 438 -270 1052 -353 1494 -202 238 81 473 252 630 459 l50 67
    0 -242 0 -241 530 0 530 0 0 1880 0 1880 -530 0 -530 0 0 -242 0 -241 -49 70
    c-102 145 -264 286 -428 371 -250 130 -601 186 -942 151z m670 -944 c402 -70
    704 -349 817 -752 25 -91 27 -112 27 -288 0 -177 -2 -197 -28 -289 -52 -188
    -131 -328 -258 -460 -190 -198 -416 -300 -695 -313 -307 -14 -575 87 -785 296
    -273 273 -375 690 -263 1078 49 173 121 298 247 430 199 207 442 310 743 312
    61 1 149 -6 195 -14z"/>
    <path d="M31762 13330 c-426 -42 -757 -170 -1049 -406 -377 -306 -613 -752
    -679 -1283 -16 -135 -18 -450 -3 -589 37 -340 148 -648 326 -902 87 -124 327
    -364 453 -452 254 -180 563 -294 915 -339 150 -19 523 -17 670 5 676 98 1171
    448 1450 1028 30 62 51 115 47 119 -4 3 -214 38 -467 78 -253 40 -469 75 -481
    78 -16 3 -27 -6 -50 -44 -90 -143 -226 -264 -388 -343 -168 -83 -364 -118
    -556 -100 -487 47 -794 374 -836 893 l-7 87 1408 0 1408 0 -6 223 c-3 122 -13
    269 -21 327 -69 469 -230 820 -505 1104 -270 278 -599 438 -1032 501 -127 19
    -470 27 -597 15z m440 -754 c276 -53 513 -228 633 -466 34 -69 85 -218 85
    -251 0 -19 -14 -19 -886 -19 l-886 0 7 43 c10 60 59 189 96 256 125 221 343
    380 594 434 90 20 263 21 357 3z"/>
    <path d="M8503 11928 c3 -1166 5 -1301 20 -1378 70 -351 221 -615 463 -810
    234 -188 544 -308 954 -371 190 -29 540 -32 730 -6 280 39 516 108 725 212
    382 190 631 511 715 923 35 173 40 361 40 1560 l0 1162 -530 0 -530 0 0 -1082
    c0 -662 -4 -1126 -10 -1193 -30 -315 -152 -504 -402 -619 -202 -94 -412 -105
    -623 -35 -253 85 -400 239 -467 491 l-22 83 -3 1178 -4 1177 -530 0 -530 0 4
    -1292z"/>
    <path d="M17370 11340 l0 -1880 530 0 530 0 0 1880 0 1880 -530 0 -530 0 0
    -1880z"/>
    <path d="M19301 12448 c214 -425 640 -1271 947 -1880 l557 -1108 280 0 280 0
    482 958 c266 526 692 1372 948 1880 l465 922 -593 0 -593 0 -494 -1056 -494
    -1056 -16 34 c-10 18 -232 493 -495 1056 l-478 1022 -593 0 -593 0 390 -772z"/>
    <path d="M6197 11020 c-36 -167 -66 -338 -88 -505 -20 -149 -23 -212 -24 -505
    0 -351 7 -430 56 -669 102 -500 343 -952 693 -1305 703 -707 1856 -1108 3416
    -1187 264 -13 997 -7 1250 10 1543 108 3045 441 4423 983 98 38 176 72 174 74
    -2 3 -107 -23 -233 -57 -643 -172 -1149 -270 -1859 -358 -863 -108 -1548 -148
    -2355 -138 -456 6 -746 20 -1080 52 -2062 202 -3428 895 -4015 2039 -219 426
    -320 849 -334 1401 l-6 249 -18 -84z"/>
    </g>
</svg>
