<?xml version="1.0" standalone="no"?>
<!DOCTYPE svg PUBLIC "-//W3C//DTD SVG 20010904//EN"
 "http://www.w3.org/TR/2001/REC-SVG-20010904/DTD/svg10.dtd">
<svg version="1.0" xmlns="http://www.w3.org/2000/svg"
    width="100%" height="100%" viewBox="500 500 3000 1500"
    preserveAspectRatio="xMidYMid meet">

    <g transform="translate(0.000000,2250.000000) scale(0.100000,-0.100000)"
    fill="#ffffff" stroke="none">
    <path d="M11520 14914 c0 -3 -252 -1646 -560 -3650 -308 -2005 -560 -3654
    -560 -3665 0 -19 15 -19 890 -19 l890 0 5 23 c3 12 113 731 245 1597 132 866
    243 1585 245 1598 l5 22 1443 0 1442 0 96 613 95 612 -1444 3 -1444 2 6 28 c3
    15 57 374 121 797 63 424 118 780 120 793 l5 22 1540 0 c926 0 1540 4 1540 9
    0 12 178 1157 186 1194 l6 27 -2436 0 c-1340 0 -2436 -3 -2436 -6z"/>
    <path d="M17537 14883 c-34 -213 -1110 -7220 -1114 -7256 l-6 -47 893 2 894 3
    205 1355 206 1355 855 6 c883 6 985 10 1310 55 741 101 1326 339 1724 703 377
    344 613 803 692 1346 22 151 29 410 15 565 -54 614 -325 1085 -811 1409 -430
    287 -1010 453 -1825 522 -97 8 -587 13 -1586 16 l-1446 4 -6 -38z m2408 -1203
    c759 -44 1182 -231 1355 -601 111 -239 102 -583 -25 -844 -153 -317 -485 -545
    -932 -639 -248 -52 -345 -59 -960 -63 -315 -3 -573 -1 -573 3 0 12 320 2105
    325 2132 l5 22 318 0 c174 0 394 -5 487 -10z"/>
    <path d="M24735 14898 c-2 -13 -254 -1652 -560 -3643 -305 -1991 -558 -3632
    -561 -3647 l-6 -28 895 0 895 0 6 33 c3 17 114 741 246 1607 132 866 243 1581
    245 1588 3 9 301 12 1444 12 l1441 0 5 23 c7 33 185 1180 185 1195 0 9 -295
    12 -1440 12 -920 0 -1440 3 -1440 10 0 17 240 1605 245 1617 3 10 325 13 1542
    15 l1538 3 92 585 c50 322 92 597 92 613 l1 27 -2430 0 -2430 0 -5 -22z"/>
    </g>
</svg>
