<?xml version="1.0" standalone="no"?>
<!DOCTYPE svg PUBLIC "-//W3C//DTD SVG 20010904//EN"
 "http://www.w3.org/TR/2001/REC-SVG-20010904/DTD/svg10.dtd">
<svg version="1.0" xmlns="http://www.w3.org/2000/svg"
    width="100%" height="100%" viewBox="500 500 3000 1500"
    preserveAspectRatio="xMidYMid meet">

    <g transform="translate(0.000000,2250.000000) scale(0.100000,-0.100000)"
    fill="#0033CA" stroke="none">
    <path d="M25230 14204 c-134 -8 -485 -36 -489 -40 -2 -2 37 -124 87 -271 49
    -147 92 -275 94 -284 3 -14 18 -13 143 12 1427 287 2898 183 4590 -325 82 -25
    151 -44 152 -42 7 6 -383 179 -612 271 -915 368 -1781 574 -2775 661 -174 15
    -1011 28 -1190 18z"/>
    <path d="M14191 14084 c-124 -33 -227 -121 -284 -241 -30 -64 -32 -74 -32
    -183 0 -109 2 -119 32 -183 112 -235 386 -324 617 -199 154 83 245 271 217
    448 -40 261 -296 427 -550 358z"/>
    <path d="M21440 11995 l0 -2105 365 0 365 0 0 2105 0 2105 -365 0 -365 0 0
    -2105z"/>
    <path d="M26240 12880 l0 -390 -140 0 -140 0 0 -300 0 -300 140 0 140 0 0
    -1000 0 -1000 355 0 355 0 0 1000 0 1000 240 0 240 0 0 300 0 300 -240 0 -240
    0 0 390 0 390 -355 0 -355 0 0 -390z"/>
    <path d="M12325 12574 c-276 -27 -513 -155 -683 -369 l-32 -40 0 163 0 162
    -370 0 -370 0 0 -1300 0 -1300 370 0 369 0 3 773 c3 763 4 773 26 852 33 118
    76 198 148 274 74 79 154 126 251 146 243 52 459 -37 551 -225 66 -135 65
    -121 69 -1012 l4 -808 365 0 364 0 0 913 c0 975 -2 1015 -51 1172 -95 307
    -325 505 -664 574 -100 20 -274 32 -350 25z"/>
    <path d="M19079 12555 c-470 -89 -826 -407 -980 -877 -91 -278 -95 -640 -12
    -927 124 -429 429 -752 837 -885 144 -47 237 -60 426 -60 156 0 185 3 271 26
    107 29 215 80 305 143 60 43 214 198 214 216 0 5 5 9 10 9 6 0 10 -60 10 -160
    l0 -160 365 0 365 0 0 1305 0 1305 -365 0 -365 0 0 -162 -1 -163 -27 35 c-133
    173 -289 279 -493 336 -84 23 -115 27 -289 30 -140 2 -216 -1 -271 -11z m615
    -655 c264 -67 464 -280 520 -552 80 -387 -134 -755 -504 -869 -98 -31 -290
    -33 -390 -6 -254 70 -443 265 -511 524 -25 99 -28 268 -5 366 63 268 256 469
    516 536 104 27 270 28 374 1z"/>
    <path d="M23817 12554 c-548 -85 -948 -472 -1067 -1032 -27 -126 -38 -409 -21
    -548 39 -322 158 -571 371 -783 149 -148 315 -250 511 -315 138 -45 262 -66
    444 -73 543 -21 968 173 1227 559 62 92 133 237 122 247 -9 8 -664 115 -668
    109 -111 -163 -232 -258 -391 -308 -107 -34 -276 -39 -383 -12 -128 33 -206
    76 -293 162 -112 110 -173 250 -186 428 l-6 72 977 0 976 0 0 104 c0 772 -397
    1290 -1065 1391 -125 19 -426 18 -548 -1z m493 -530 c187 -59 329 -195 396
    -380 13 -35 24 -76 24 -89 l0 -25 -609 0 c-336 0 -612 4 -615 8 -9 14 48 166
    84 226 89 148 265 260 455 289 58 9 190 -5 265 -29z"/>
    <path d="M7783 11578 c3 -832 5 -920 21 -988 93 -394 369 -642 827 -744 280
    -62 548 -62 829 1 458 101 732 348 826 743 16 68 18 154 21 988 l4 912 -366 0
    -365 0 0 -739 c0 -764 -5 -895 -40 -997 -69 -199 -259 -324 -495 -324 -236 0
    -426 125 -495 325 -34 99 -40 243 -40 1003 l0 732 -365 0 -366 0 4 -912z"/>
    <path d="M13940 11185 l0 -1305 365 0 365 0 0 1305 0 1305 -365 0 -365 0 0
    -1305z"/>
    <path d="M15552 11413 c299 -593 595 -1180 658 -1305 l115 -228 194 2 195 3
    653 1295 c359 712 653 1298 653 1303 0 4 -184 7 -409 7 l-408 0 -338 -722
    c-186 -398 -340 -726 -344 -730 -3 -4 -159 321 -346 722 l-340 729 -413 1
    -413 0 543 -1077z"/>
    <path d="M27849 11918 c159 -315 454 -900 655 -1300 l367 -728 188 0 187 0
    652 1294 c359 712 652 1297 652 1300 0 3 -178 5 -396 4 l-395 -3 -346 -740
    c-190 -407 -348 -743 -352 -747 -3 -3 -163 331 -356 743 l-349 749 -398 0
    -398 0 289 -572z"/>
    <path d="M32121 11100 c-5 -691 -258 -1229 -778 -1658 -179 -147 -547 -349
    -826 -452 -441 -163 -985 -271 -1617 -320 -221 -18 -879 -24 -1155 -11 -820
    38 -1574 143 -2220 310 -126 33 -231 58 -232 57 -7 -6 355 -142 562 -211 788
    -263 1573 -424 2435 -501 240 -21 876 -30 1110 -15 844 54 1484 236 1972 561
    691 459 962 1176 803 2125 -14 83 -32 175 -39 205 -14 54 -14 54 -15 -90z"/>
    </g>
</svg>
