<?xml version="1.0" standalone="no"?>
<!DOCTYPE svg PUBLIC "-//W3C//DTD SVG 20010904//EN"
 "http://www.w3.org/TR/2001/REC-SVG-20010904/DTD/svg10.dtd">
<svg version="1.0" xmlns="http://www.w3.org/2000/svg"
    width="100%" height="100%" viewBox="1200 500 3000 1500"
    preserveAspectRatio="xMidYMid meet">

    <g transform="translate(0.000000,2250.000000) scale(0.100000,-0.100000)"
    fill="#0033CA" stroke="none">
    <path d="M25245 15904 c-454 -73 -717 -522 -554 -944 74 -193 231 -340 434
    -407 70 -23 96 -26 210 -26 114 0 140 3 210 26 111 37 198 90 280 172 82 82
    135 169 172 280 33 103 38 282 10 385 -67 244 -256 433 -496 495 -66 17 -212
    27 -266 19z"/>
    <path d="M17278 13903 l-3 -618 -232 -3 -233 -2 0 -465 0 -465 235 0 235 0 0
    -1585 0 -1585 585 0 585 0 0 1585 0 1585 405 0 405 0 0 460 0 460 -405 0 -405
    0 0 625 0 625 -585 0 -585 0 -2 -617z"/>
    <path d="M27240 13900 l0 -620 -230 0 -230 0 0 -465 0 -465 230 0 230 0 0
    -1585 0 -1585 590 0 590 0 0 1585 0 1585 405 0 405 0 0 465 0 465 -405 0 -405
    0 0 620 0 620 -590 0 -590 0 0 -620z"/>
    <path d="M13980 13484 c-362 -31 -554 -74 -795 -178 -243 -105 -417 -225 -615
    -425 -247 -250 -412 -527 -515 -865 -66 -221 -93 -400 -102 -671 -18 -593 120
    -1070 426 -1470 66 -87 232 -256 336 -343 314 -263 713 -424 1170 -472 137
    -14 499 -15 625 0 728 82 1256 410 1606 996 60 101 148 288 136 291 -19 6
    -1075 173 -1077 171 -127 -189 -212 -279 -347 -368 -348 -229 -833 -241 -1190
    -29 -84 49 -225 181 -278 259 -113 166 -182 387 -192 610 l-3 75 1564 3 1564
    2 -7 183 c-19 505 -85 817 -242 1147 -290 606 -812 972 -1519 1065 -116 15
    -453 27 -545 19z m335 -834 c352 -51 639 -258 780 -563 36 -77 75 -206 75
    -244 l0 -23 -980 0 -980 0 0 23 c0 66 70 248 137 356 200 320 594 504 968 451z"/>
    <path d="M21555 13480 c-432 -35 -815 -171 -1122 -398 -117 -87 -342 -315
    -422 -427 -286 -406 -421 -853 -421 -1400 0 -550 140 -1002 429 -1380 61 -81
    239 -263 331 -340 318 -265 718 -427 1175 -475 217 -23 578 -13 785 21 590 98
    1061 395 1381 871 103 152 224 398 197 398 -6 0 -250 38 -541 85 -292 47 -531
    84 -532 83 -1 -2 -18 -28 -38 -58 -155 -237 -387 -397 -671 -463 -74 -17 -123
    -21 -261 -21 -184 0 -246 10 -391 61 -221 79 -419 252 -523 461 -68 134 -115
    328 -123 497 l-3 70 1564 3 1564 2 -7 188 c-19 512 -91 842 -256 1172 -268
    534 -708 870 -1315 1004 -197 43 -568 65 -800 46z m480 -844 c307 -65 559
    -260 690 -531 43 -89 85 -218 85 -262 l0 -23 -980 0 -980 0 0 28 c0 49 76 250
    126 333 148 247 413 422 710 469 79 12 262 5 349 -14z"/>
    <path d="M24750 11240 l0 -2050 585 0 585 0 0 2050 0 2050 -585 0 -585 0 0
    -2050z"/>
    </g>
</svg>
